<svg width="266" height="266" viewBox="0 0 266 266" fill="none" xmlns="http://www.w3.org/2000/svg">
<path d="M145.728 83.0728H145.625C145.157 83.0209 144.637 82.7092 144.637 81.9818C147.547 42.6013 132.636 33.9771 132.48 33.9252C131.961 33.6654 131.805 32.99 132.065 32.5224C132.325 32.0549 132.948 31.847 133.468 32.1068C134.143 32.4705 149.781 41.2506 146.768 82.1377C146.716 82.6053 146.248 83.0728 145.728 83.0728Z" fill="#1E6540"/>
<path d="M132.169 37.7697C135.268 37.7697 137.78 35.2576 137.78 32.1588C137.78 29.06 135.268 26.5479 132.169 26.5479C129.07 26.5479 126.558 29.06 126.558 32.1588C126.558 35.2576 129.07 37.7697 132.169 37.7697Z" fill="#37B874"/>
<path d="M78.0336 205.111C76.5789 204.955 42.8613 200.954 31.5355 184.693C27.9507 179.55 26.8597 173.731 28.4183 167.497C35.6398 137.935 84.4238 139.026 86.5019 139.078C88.632 139.13 90.3464 140.949 90.2945 143.079C90.2425 145.209 88.4242 146.923 86.2941 146.871C86.9695 146.871 75.7996 146.456 62.5515 149.469C47.2773 153.106 38.3933 159.808 36.0554 169.367C35.0683 173.419 35.6918 177.004 38.0296 180.277C45.7707 191.343 70.2406 196.383 79.0207 197.422C81.1507 197.681 82.7093 199.604 82.4496 201.734C82.2418 203.708 80.5793 205.163 78.605 205.163C78.4492 205.059 78.5011 205.111 78.0336 205.111Z" fill="#1E6540"/>
<path d="M174.095 153.054C174.095 151.184 175.446 149.573 177.316 149.209C209.371 143.391 229.321 131.182 236.595 112.842C245.738 89.9829 233.581 59.954 219.658 39.8481C218.359 38.1336 218.671 35.6919 220.385 34.393C222.152 33.0422 224.645 33.4579 225.944 35.2762C241.53 57.668 254.051 90.2426 243.816 115.752C235.452 136.741 213.527 150.56 178.667 156.898C176.225 157.366 174.095 155.496 174.095 153.054Z" fill="#1E6540"/>
<mask id="mask0_503_2219" style="mask-type:luminance" maskUnits="userSpaceOnUse" x="123" y="223" width="29" height="27">
<path d="M137.78 249.894C145.613 249.894 151.963 243.916 151.963 236.542C151.963 229.168 145.613 223.19 137.78 223.19C129.946 223.19 123.596 229.168 123.596 236.542C123.596 243.916 129.946 249.894 137.78 249.894Z" fill="white"/>
</mask>
<g mask="url(#mask0_503_2219)">
<path d="M137.78 249.894C145.613 249.894 151.963 243.916 151.963 236.542C151.963 229.168 145.613 223.19 137.78 223.19C129.946 223.19 123.596 229.168 123.596 236.542C123.596 243.916 129.946 249.894 137.78 249.894Z" fill="#1E6540"/>
<path d="M118.453 232.386C118.453 232.386 136.273 238.517 156.691 233.477L151.911 246.258C151.911 246.258 141.728 254.155 141.053 254.155C140.377 254.155 120.635 248.855 120.635 248.855L118.453 232.386Z" fill="#37B874"/>
</g>
<mask id="mask1_503_2219" style="mask-type:luminance" maskUnits="userSpaceOnUse" x="72" y="109" width="135" height="119">
<path d="M73.3578 138.455L91.4375 218.515C91.4375 218.515 135.442 238.88 189.265 218.515L205.838 134.559C208.124 123.077 200.643 111.907 189.109 109.621C185.992 108.998 192.954 109.102 95.3859 110.452C80.839 110.66 70.1367 124.22 73.3578 138.455Z" fill="white"/>
</mask>
<g mask="url(#mask1_503_2219)">
<path d="M73.3578 138.455L91.4375 218.515C91.4375 218.515 135.442 238.88 189.265 218.515L205.838 134.559C208.124 123.077 200.643 111.907 189.109 109.621C185.992 108.998 192.954 109.102 95.3859 110.452C80.839 110.66 70.1367 124.22 73.3578 138.455Z" fill="#37B874"/>
<path d="M85.8784 112.634C85.8784 112.634 86.5538 131.026 130.039 137.156C173.523 143.287 200.955 120.531 202.721 112.634C204.487 104.737 177.316 100.062 177.316 100.062L122.142 95.3859C122.142 95.4378 96.8925 94.2429 85.8784 112.634Z" fill="#1E6540"/>
<path d="M95.178 228.074C94.6585 228.074 94.4507 227.399 94.9183 227.087C120.531 211.241 124.532 152.274 110.296 147.183C102.555 144.43 92.6843 137.624 85.7226 132.428C78.2413 126.765 72.5265 121.726 72.4745 121.674C72.2667 121.466 72.2148 121.155 72.4226 120.947C72.6304 120.739 72.9421 120.739 73.1499 120.895C73.3577 121.103 96.0093 141.001 110.608 146.196C126.038 151.599 121.466 211.865 95.4378 227.97C95.3339 228.074 95.23 228.074 95.178 228.074Z" fill="#1E6540"/>
<path d="M183.862 228.074C183.758 228.074 183.654 228.022 183.602 228.022C157.574 211.917 153.002 151.755 168.432 146.248C183.031 141.053 205.682 121.155 205.89 120.947C206.098 120.739 206.41 120.791 206.617 120.999C206.721 121.103 206.877 121.466 206.566 121.726C206.358 121.934 183.602 141.988 168.744 147.235C154.457 152.274 158.561 211.345 184.122 227.139C184.589 227.399 184.433 228.074 183.862 228.074Z" fill="#1E6540"/>
<path d="M116.791 155.807C81.93 147.703 70.3445 131.961 70.2406 131.805C70.0328 131.597 70.0847 131.233 70.2925 131.078C70.5003 130.87 70.864 130.922 71.0199 131.13C81.7222 143.598 101.101 151.08 117.05 154.82C117.362 154.872 117.57 155.132 117.518 155.392C117.466 155.703 117.206 155.911 116.946 155.859C116.894 155.807 116.946 155.807 116.791 155.807Z" fill="#1E6540"/>
<path d="M162.146 155.807C161.834 155.807 161.626 155.6 161.574 155.34C161.522 155.08 161.782 154.82 162.042 154.768C162.302 154.716 190.356 151.028 216.437 126.558C216.645 126.35 216.956 126.35 217.164 126.558C217.268 126.662 217.424 127.025 217.164 127.285C190.876 152.015 162.509 155.755 162.198 155.755L162.146 155.807Z" fill="#1E6540"/>
</g>
<path d="M96.0613 116.063C89.2035 114.868 84.8914 108.01 86.7617 101.256C91.6453 83.8002 105.257 54.3947 141.312 55.3299C177.368 56.265 189.681 84.8912 193.785 101.724C195.552 108.894 191.188 116.115 183.966 117.881C169.939 121.258 142.404 124.324 96.0613 116.063Z" fill="#37B874"/>
<path d="M175.861 103.647C175.342 107.699 172.329 110.972 168.276 111.803C151.132 115.232 133.468 115.232 116.375 111.803C112.375 110.972 109.361 107.699 108.842 103.647L106.816 86.9696C106.088 80.891 111.232 75.6438 117.362 76.3711C133.571 78.2414 150.3 78.3453 167.393 76.3711C172.588 75.7477 177.316 79.4883 177.939 84.6836C178.095 86.1903 178.147 85.0473 175.861 103.647Z" fill="white"/>
<path d="M84.0082 191.863C78.7089 193.577 74.9164 197.474 74.241 202.046C73.9293 204.487 74.3968 206.981 75.6437 209.111C78.8648 214.67 86.8136 216.177 93.9832 216.489L94.6066 210.774C94.6066 210.774 84.2679 209.215 84.4238 203.137C84.4238 202.461 84.6316 201.838 84.9953 201.266C86.5019 199.292 91.1777 199.708 96.5289 202.15C97.3082 200.175 98.0355 198.149 98.8148 196.175C95.0222 191.967 89.4632 190.668 84.0082 191.863Z" fill="#1E6540"/>
<path d="M213.735 43.0692C219.294 43.5888 224.282 41.5106 226.723 37.5622C227.97 35.4321 228.49 32.9903 228.23 30.4966C227.451 24.1583 220.749 19.5864 214.307 16.4692L211.449 21.4567C211.449 21.4567 220.333 26.9638 217.839 32.5228C217.58 33.1462 217.112 33.6657 216.593 34.0294C214.463 35.2243 210.306 33.0423 206.358 28.6782C204.851 30.2368 203.397 31.7435 201.89 33.302C203.656 38.5493 208.176 41.9782 213.735 43.0692Z" fill="#1E6540"/>
<path d="M132.428 104.426C138.871 106.348 145.728 106.556 152.327 105.101C147.547 111.595 137.52 112.167 132.428 104.426Z" fill="#1E6540"/>
<path d="M50.3426 82.4496C50.3426 82.4496 32.3668 83.3848 27.4832 82.4496C22.5996 81.5145 16.2094 21.8203 19.2746 18.0278C22.3398 14.2352 96.425 16.9367 99.1785 19.3266C101.932 21.7164 82.2937 78.8649 80.3195 80.5274C78.3453 82.1899 63.5906 82.9172 63.5906 82.9172C63.5906 82.9172 64.1101 92.3207 71.3836 94.3988C71.3836 94.3469 53.7715 96.425 50.3426 82.4496Z" fill="#3A4C67"/>
<path d="M33.9773 29.8731C33.9773 29.8731 37.0425 70.5524 37.5101 70.6563C37.9777 70.7602 43.2249 70.9161 43.5886 69.6692C43.9523 68.4224 42.6015 51.4856 43.0171 51.4856C43.4327 51.4856 49.5632 50.8622 49.9788 51.4856C50.3945 52.1091 49.2515 68.3704 49.9788 68.838C50.7062 69.3056 55.0702 69.4614 55.2261 68.3704C55.382 67.2794 55.9535 29.7173 55.2261 29.4056C54.4988 29.0938 50.7062 28.3145 50.3425 29.4056C49.9788 30.4966 49.5632 46.2384 48.68 46.3423C47.7968 46.4462 43.5886 47.1735 43.2249 46.4462C42.8613 45.7188 41.7702 29.6653 41.1468 28.938C40.5234 28.2106 33.8734 28.6263 33.9773 29.8731Z" fill="white"/>
<path d="M60.0058 44.9915C60.0058 44.9915 57.8238 67.9548 58.2914 68.3185C58.759 68.6822 63.7465 69.5654 64.1101 68.3185C64.4738 67.0716 65.0453 45.1474 64.1101 44.4201C63.175 43.6927 60.1617 43.6927 60.0058 44.9915Z" fill="white"/>
<path d="M63.123 38.5493C65.1316 38.5493 66.7598 36.9211 66.7598 34.9126C66.7598 32.9041 65.1316 31.2759 63.123 31.2759C61.1145 31.2759 59.4863 32.9041 59.4863 34.9126C59.4863 36.9211 61.1145 38.5493 63.123 38.5493Z" fill="white"/>
<path d="M70.3446 29.3016C70.3446 29.3016 67.2274 60.2137 68.0067 60.6293C68.786 61.0449 70.5524 61.5125 71.0199 60.6293C71.4875 59.7461 76.6309 29.5613 76.0075 28.5742C75.384 27.5871 70.5004 27.8469 70.3446 29.3016Z" fill="white"/>
<path d="M69.4094 68.474C70.8727 68.474 72.059 67.2878 72.059 65.8244C72.059 64.3611 70.8727 63.1748 69.4094 63.1748C67.946 63.1748 66.7598 64.3611 66.7598 65.8244C66.7598 67.2878 67.946 68.474 69.4094 68.474Z" fill="white"/>
<path d="M138.299 149.833H139.182C144.17 149.833 148.17 153.885 148.17 158.821V192.227C148.17 197.214 144.118 201.215 139.182 201.215H138.299C133.312 201.215 129.311 197.162 129.311 192.227V158.821C129.311 153.833 133.312 149.833 138.299 149.833Z" fill="#1E6540"/>
<path d="M139.546 163.912C142.186 163.912 144.326 161.772 144.326 159.132C144.326 156.492 142.186 154.353 139.546 154.353C136.906 154.353 134.766 156.492 134.766 159.132C134.766 161.772 136.906 163.912 139.546 163.912Z" fill="#3A4C67"/>
<path d="M139.546 179.238C142.186 179.238 144.326 177.098 144.326 174.458C144.326 171.819 142.186 169.679 139.546 169.679C136.906 169.679 134.766 171.819 134.766 174.458C134.766 177.098 136.906 179.238 139.546 179.238Z" fill="#3A4C67"/>
<path d="M139.546 194.512C142.186 194.512 144.326 192.373 144.326 189.733C144.326 187.093 142.186 184.953 139.546 184.953C136.906 184.953 134.766 187.093 134.766 189.733C134.766 192.373 136.906 194.512 139.546 194.512Z" fill="#3A4C67"/>
<path d="M125.83 102.244C130.048 102.244 133.468 98.8247 133.468 94.6068C133.468 90.389 130.048 86.9697 125.83 86.9697C121.613 86.9697 118.193 90.389 118.193 94.6068C118.193 98.8247 121.613 102.244 125.83 102.244Z" fill="#1E6540"/>
<path d="M158.925 102.244C163.142 102.244 166.562 98.8247 166.562 94.6068C166.562 90.389 163.142 86.9697 158.925 86.9697C154.707 86.9697 151.287 90.389 151.287 94.6068C151.287 98.8247 154.707 102.244 158.925 102.244Z" fill="#1E6540"/>
<path d="M126.35 88.9956C123.544 88.9956 123.96 93.3077 126.766 93.3077C129.571 93.3077 129.155 88.9956 126.35 88.9956Z" fill="white"/>
<path d="M158.301 88.2686C155.496 88.2686 155.911 92.5807 158.717 92.5807C161.522 92.5807 161.107 88.2686 158.301 88.2686Z" fill="white"/>
<path d="M117.674 110.141C120.974 110.141 123.648 108.605 123.648 106.712C123.648 104.818 120.974 103.283 117.674 103.283C114.374 103.283 111.699 104.818 111.699 106.712C111.699 108.605 114.374 110.141 117.674 110.141Z" fill="#E2E2E2"/>
<path d="M166.562 110.141C169.861 110.141 172.536 108.605 172.536 106.712C172.536 104.818 169.861 103.283 166.562 103.283C163.262 103.283 160.587 104.818 160.587 106.712C160.587 108.605 163.262 110.141 166.562 110.141Z" fill="#E2E2E2"/>
<path d="M174.043 72.8901C173.679 72.8901 173.368 72.7342 173.108 72.5264C155.028 54.7065 129.831 60.2654 129.571 60.3174C128.896 60.4733 128.168 60.0576 128.012 59.3822C127.857 58.6549 128.272 57.9795 129 57.8236C129.259 57.7717 155.859 51.901 174.978 70.708C175.809 71.4873 175.186 72.8381 174.043 72.8901Z" fill="white"/>
<path d="M141.053 144.274C138.975 144.274 137.78 144.222 137.728 144.222C137 144.17 136.481 143.598 136.481 142.871C136.533 142.248 137 141.624 137.832 141.624C138.195 141.624 175.342 143.235 193.37 127.077C193.889 126.61 194.72 126.662 195.188 127.181C195.655 127.701 195.603 128.532 195.084 129C181.888 140.845 158.665 144.222 141.053 144.274Z" fill="white"/>
<path d="M187.395 205.267C186.668 205.319 185.992 204.592 186.148 203.76L192.954 163.756C193.11 163.081 193.837 162.613 194.513 162.821C195.136 162.977 195.552 163.549 195.5 164.224L188.694 204.228C188.59 204.799 188.018 205.267 187.395 205.267Z" fill="white"/>
<path d="M184.278 210.878C181.472 210.878 181.888 215.19 184.693 215.19C187.499 215.19 187.083 210.878 184.278 210.878Z" fill="white"/>
<path d="M199.188 122.973C196.383 122.973 196.798 127.285 199.604 127.285C202.409 127.285 201.942 122.973 199.188 122.973Z" fill="white"/>
<path d="M178.823 74.293C176.017 74.293 176.433 78.6051 179.238 78.6051C182.044 78.6051 181.628 74.293 178.823 74.293Z" fill="white"/>
</svg>
