<svg width="322" height="322" viewBox="0 0 322 322" fill="none" xmlns="http://www.w3.org/2000/svg">
<path d="M87.921 108.927C87.1664 108.927 86.4746 108.486 86.1601 107.732C83.8332 101.631 82.5753 95.1536 82.5125 88.5501C82.5125 74.7142 88.9273 64.7146 101.128 59.6833C112.26 55.0923 131.63 52.2622 149.428 52.6396C188.546 53.52 220.494 68.8653 210.684 106.914C210.369 107.92 209.363 108.486 208.357 108.235C207.413 107.983 206.784 106.977 207.036 105.971C210.935 90.8771 207.979 78.9907 198.294 70.5634C175.905 51.1302 122.825 54.7149 102.575 63.1423C91.7574 67.6075 86.2859 76.1606 86.2859 88.4872C86.3488 94.5247 87.4808 100.562 89.6191 106.222C90.1222 107.48 89.3046 108.864 87.921 108.927Z" fill="#18202B"/>
<path d="M94.0844 129.366C103.706 129.366 111.505 121.876 111.505 112.637C111.505 103.398 103.706 95.9082 94.0844 95.9082C84.4632 95.9082 76.6637 103.398 76.6637 112.637C76.6637 121.876 84.4632 129.366 94.0844 129.366Z" fill="#18202B"/>
<path d="M196.407 129.366C205.716 129.366 213.262 121.876 213.262 112.637C213.262 103.398 205.716 95.9082 196.407 95.9082C187.099 95.9082 179.553 103.398 179.553 112.637C179.553 121.876 187.099 129.366 196.407 129.366Z" fill="#18202B"/>
<path d="M259.424 83.0785C254.959 92.2606 246.154 98.4867 236.029 99.7445C240.305 95.2164 242.129 88.9274 240.871 82.8899C240.871 82.8899 212.696 86.0973 204.017 54.9664C195.338 23.8356 244.267 16.2258 280.304 20.691C287.599 21.5715 291.875 23.9613 295.272 27.4832C305.145 37.7344 304.579 59.6203 292.567 72.45C280.241 85.7199 261.499 83.3301 259.424 83.0785Z" fill="#18202B"/>
<path d="M76.6637 207.602C76.2234 207.602 75.7832 207.539 75.343 207.413C37.5457 196.533 12.8926 161.126 21.5715 137.731C29.307 116.851 57.8594 111.442 61.1297 110.939C63.7082 110.436 66.1609 112.134 66.6012 114.713C67.1043 117.291 65.4062 119.744 62.8277 120.184C50.4383 122.448 34.8414 129.115 30.4391 141.001C24.2758 157.604 43.7719 188.42 77.9844 198.294C80.5 198.986 81.9465 201.627 81.1918 204.143C80.6258 206.218 78.8019 207.602 76.6637 207.602Z" fill="#32A76A"/>
<path d="M70.3746 128.674C68.6766 128.297 59.5574 126.096 57.1676 118.612C56.4129 115.782 56.5387 112.826 57.6078 110.121C60.5008 103.015 70.752 98.8011 83.0785 99.7445L76.9152 109.052C73.016 107.983 69.2426 109.493 67.859 112.26C66.9785 114.021 66.9156 116.411 68.0476 117.92C69.9973 120.561 75.6574 120.939 81.3176 117.291C83.1414 120.247 84.9652 123.203 86.7891 126.159C84.8394 127.165 78.2988 130.624 70.3746 128.674Z" fill="#32A76A"/>
<path d="M236.846 272.945C237.727 271.436 242.506 263.323 238.733 256.468C237.223 253.952 235.022 252.003 232.381 250.871C225.211 248.041 215.149 252.506 207.225 262.065L215.275 267.348C218.042 260.933 223.199 258.103 226.469 259.361C228.419 260.053 229.677 262.254 229.928 264.141C230.368 267.977 226.784 272.442 220.683 273.826C221.689 276.845 222.696 279.926 223.702 282.945C225.714 282.316 232.695 279.989 236.846 272.945Z" fill="#32A76A"/>
<path d="M233.136 260.116C229.802 260.116 227.413 256.657 228.796 253.512C237.349 233.953 246.405 205.715 236.406 186.911C232.507 179.49 225.652 174.081 217.539 172.006C214.96 171.503 213.325 168.987 213.828 166.472C214.331 163.956 216.721 162.321 219.237 162.761C219.929 162.887 235.966 165.968 244.77 182.509C254.078 200.055 251.625 225.211 237.475 257.349C236.657 258.984 234.959 260.116 233.136 260.116Z" fill="#32A76A"/>
<path d="M138.234 105.279C134.712 57.1675 153.139 46.7905 153.956 46.3503C154.585 46.0359 155.34 46.2245 155.654 46.8534C155.969 47.4823 155.78 48.237 155.151 48.5515C154.9 48.6773 137.416 58.8655 140.749 105.09C140.812 105.782 140.309 106.411 139.617 106.411C138.674 106.537 138.234 105.782 138.234 105.279Z" fill="#32A76A"/>
<path d="M155.403 53.0796C159.05 53.0796 162.006 50.1231 162.006 46.4761C162.006 42.8291 159.05 39.8726 155.403 39.8726C151.756 39.8726 148.799 42.8291 148.799 46.4761C148.799 50.1231 151.756 53.0796 155.403 53.0796Z" fill="#79CFA2"/>
<mask id="mask0_503_2330" style="mask-type:luminance" maskUnits="userSpaceOnUse" x="130" y="270" width="35" height="33">
<path d="M163.802 290.373C165.678 281.895 159.914 273.409 150.927 271.42C141.94 269.431 133.133 274.692 131.257 283.17C129.38 291.649 135.144 300.134 144.132 302.123C153.119 304.112 161.925 298.852 163.802 290.373Z" fill="white"/>
</mask>
<g mask="url(#mask0_503_2330)">
<path d="M163.802 290.373C165.679 281.895 159.914 273.409 150.927 271.42C141.94 269.431 133.133 274.692 131.257 283.17C129.38 291.649 135.145 300.134 144.132 302.123C153.119 304.112 161.926 298.852 163.802 290.373Z" fill="#32A76A"/>
<path d="M170.748 286.844C170.748 286.844 148.673 289.36 126.473 278.354L128.737 294.265C128.737 294.265 138.422 305.963 139.24 306.089C140.057 306.214 164.082 305.145 164.082 305.145L170.748 286.844Z" fill="#79CFA2"/>
</g>
<mask id="mask1_503_2330" style="mask-type:luminance" maskUnits="userSpaceOnUse" x="68" y="135" width="158" height="142">
<path d="M225.085 174.207L200.873 267.788C200.873 267.788 148.359 290.114 85.7199 264.203L69.3054 164.773C67.0414 151.126 76.2863 138.296 89.8707 136.032C93.5812 135.403 85.7828 135.278 200.118 140.435C217.287 141.252 229.362 157.604 225.085 174.207Z" fill="white"/>
</mask>
<g mask="url(#mask1_503_2330)">
<path d="M225.085 174.207L200.873 267.788C200.873 267.788 148.359 290.114 85.7199 264.203L69.3054 164.773C67.0414 151.126 76.2863 138.296 89.8707 136.032C93.5812 135.403 85.7828 135.278 200.118 140.435C217.287 141.252 229.362 157.604 225.085 174.207Z" fill="#79CFA2"/>
<path d="M211.312 143.453C211.312 143.453 209.866 165.088 158.421 170.685C106.977 176.282 75.5944 148.485 73.8335 139.177C72.0726 129.869 104.147 125.341 104.147 125.341L169.239 121.882C169.301 121.819 199.049 121.379 211.312 143.453Z" fill="#32A76A"/>
<path d="M195.841 278.857C165.843 258.983 162.572 187.98 180.999 182.068C198.42 176.534 225.714 153.893 226.029 153.705C226.28 153.453 226.721 153.516 226.909 153.767C227.161 154.019 227.098 154.459 226.846 154.648C226.972 154.648 198.734 177.729 181.439 183.263C164.585 188.672 166.975 258.166 196.533 277.788C196.848 277.976 196.911 278.354 196.722 278.668C196.533 278.92 196.093 279.046 195.841 278.857Z" fill="#32A76A"/>
<path d="M91.7574 275.65C91.1285 275.65 90.8769 274.832 91.4429 274.455C122.134 256.782 129.052 187.477 112.448 181.062C105.216 178.232 95.6566 172.069 84.0847 162.824C75.4687 155.906 68.9281 149.743 68.8652 149.68C68.6136 149.428 68.6136 149.051 68.8652 148.799C68.991 148.673 69.4312 148.422 69.7457 148.799C69.9972 149.051 95.8453 173.326 112.889 179.93C130.938 186.974 123.266 257.663 92.0718 275.587C92.0089 275.65 91.8832 275.712 91.7574 275.65Z" fill="#32A76A"/>
<path d="M173.264 193.074C172.886 193.137 172.635 192.886 172.572 192.508C172.509 192.131 172.76 191.879 173.138 191.816C194.458 187.54 208.294 180.685 216.092 175.716C224.582 170.308 228.041 165.843 228.041 165.78C228.23 165.465 228.607 165.402 228.922 165.591C229.236 165.78 229.299 166.22 229.048 166.534C228.922 166.723 225.463 171.188 216.847 176.723C197.854 188.923 174.144 192.823 173.264 193.074Z" fill="#32A76A"/>
<path d="M119.995 191.439H119.932C119.618 191.376 86.3488 185.968 56.2871 155.906C56.0355 155.654 56.0355 155.277 56.2871 155.025C56.5386 154.774 56.916 154.774 57.1675 155.025C86.9148 184.773 119.744 190.181 120.121 190.244C120.498 190.244 120.75 190.559 120.687 190.936C120.687 191.187 120.373 191.439 119.995 191.439Z" fill="#32A76A"/>
</g>
<path d="M197.917 145.277C205.967 143.831 211.061 135.781 208.86 127.857C203.137 107.291 187.1 72.7017 144.586 73.7708C102.071 74.8399 87.6067 108.549 82.7641 128.36C80.6887 136.85 85.8457 145.403 94.3359 147.416C110.939 151.378 143.328 154.963 197.917 145.277Z" fill="#79CFA2"/>
<path d="M104.021 130.624C104.587 135.404 108.235 139.303 112.952 140.183C133.139 144.208 153.831 144.208 174.018 140.183C178.735 139.24 182.257 135.341 182.886 130.624C183.704 124.083 184.458 117.543 185.276 111.002C186.156 103.77 180.056 97.7321 172.886 98.5497C153.327 100.814 133.58 100.814 114.021 98.5497C107.92 97.8579 102.386 102.197 101.631 108.298C101.38 110.247 101.443 109.681 104.021 130.624Z" fill="white"/>
<path d="M146.095 245.714H145.655C139.617 245.525 134.9 240.494 135.089 234.456L136.284 195.779C136.473 189.741 141.504 185.024 147.541 185.213H147.982C154.019 185.402 158.736 190.433 158.547 196.47L157.352 235.148C157.101 241.186 152.07 245.902 146.095 245.714Z" fill="#32A76A"/>
<path d="M146.472 201.816C149.598 201.816 152.132 199.282 152.132 196.156C152.132 193.03 149.598 190.496 146.472 190.496C143.346 190.496 140.812 193.03 140.812 196.156C140.812 199.282 143.346 201.816 146.472 201.816Z" fill="#18202B"/>
<path d="M145.906 219.866C149.032 219.866 151.566 217.332 151.566 214.206C151.566 211.08 149.032 208.545 145.906 208.545C142.78 208.545 140.246 211.08 140.246 214.206C140.246 217.332 142.78 219.866 145.906 219.866Z" fill="#18202B"/>
<path d="M145.34 237.852C148.466 237.852 151 235.318 151 232.192C151 229.066 148.466 226.532 145.34 226.532C142.214 226.532 139.68 229.066 139.68 232.192C139.68 235.318 142.214 237.852 145.34 237.852Z" fill="#18202B"/>
<path d="M171 128.926C174.89 128.926 178.043 127.124 178.043 124.901C178.043 122.678 174.89 120.876 171 120.876C167.109 120.876 163.956 122.678 163.956 124.901C163.956 127.124 167.109 128.926 171 128.926Z" fill="#E2E2E2"/>
<path d="M114.964 128.926C118.854 128.926 122.008 127.124 122.008 124.901C122.008 122.678 118.854 120.876 114.964 120.876C111.074 120.876 107.92 122.678 107.92 124.901C107.92 127.124 111.074 128.926 114.964 128.926Z" fill="#E2E2E2"/>
<path d="M96.2226 108.612C95.0906 108.612 94.3359 107.48 94.7761 106.411C95.0906 105.593 103.266 86.8519 125.027 79.4937C125.844 79.2422 126.725 79.6824 127.039 80.5C127.291 81.3175 126.85 82.198 126.033 82.5125C105.656 89.4304 97.732 107.543 97.6691 107.669C97.4175 108.172 96.8515 108.549 96.2226 108.612Z" fill="white"/>
<path d="M137.919 177.855C99.7446 176.597 85.1539 160.057 84.525 159.365C83.959 158.673 84.0848 157.73 84.7137 157.164C85.3426 156.598 86.3489 156.723 86.9149 157.352C87.1036 157.541 101.38 173.515 137.919 174.773C138.8 174.773 139.491 175.528 139.491 176.345C139.491 177.163 138.737 177.855 137.919 177.855Z" fill="white"/>
<path d="M88.9903 247.286C88.2356 247.286 87.5438 246.72 87.418 245.965L78.9907 188.106C78.8649 187.226 79.4938 186.408 80.3114 186.282C81.1918 186.156 82.0094 186.785 82.1352 187.603L90.5626 245.462C90.6883 246.406 89.9336 247.286 88.9903 247.286Z" fill="white"/>
<path d="M90.4367 252.82C87.1664 252.82 87.6695 257.914 90.9398 257.914C94.2101 257.914 93.707 252.82 90.4367 252.82Z" fill="white"/>
<path d="M78.9278 150.686C75.6575 150.686 76.1606 155.78 79.4309 155.78C82.7012 155.78 82.1981 150.686 78.9278 150.686Z" fill="white"/>
<path d="M149.428 172.446C146.158 172.446 146.661 177.54 149.931 177.54C153.202 177.54 152.698 172.446 149.428 172.446Z" fill="white"/>
<path d="M94.273 113.895C91.0027 113.895 91.5058 118.989 94.7761 118.989C98.0464 118.989 97.5433 113.895 94.273 113.895Z" fill="white"/>
<path d="M134.083 76.7266C130.813 76.7266 131.316 81.8207 134.586 81.8207C137.856 81.8207 137.353 76.7266 134.083 76.7266Z" fill="white"/>
<path d="M111.505 116.41L135.655 118.863C135.97 112.574 131.693 107.103 126.159 105.908C119.681 104.587 112.763 109.178 111.505 116.41Z" fill="#32A76A"/>
<path d="M174.081 116.41L149.931 118.863C149.68 112.574 153.893 107.103 159.428 105.908C165.905 104.587 172.823 109.178 174.081 116.41Z" fill="#32A76A"/>
<path d="M127.982 109.304C125.089 109.304 125.53 113.769 128.423 113.769C131.316 113.769 130.812 109.304 127.982 109.304Z" fill="white"/>
<path d="M156.283 109.052C153.39 109.052 153.83 113.517 156.723 113.517C159.616 113.517 159.113 109.052 156.283 109.052Z" fill="white"/>
<path d="M177.1 139.429C177.1 138.926 177.54 138.485 178.043 138.485C190.936 138.171 206.973 136.033 210.558 128.045C213.199 122.197 207.728 115.656 207.665 115.593C207.35 115.216 207.35 114.587 207.791 114.272C208.168 113.958 208.797 113.958 209.111 114.398C209.363 114.713 215.4 121.882 212.256 128.8C209.048 135.97 197.539 139.869 178.043 140.372C177.477 140.372 177.1 139.932 177.1 139.429Z" fill="#18202B"/>
<path d="M175.15 144.523C179.701 144.523 183.389 142.326 183.389 139.617C183.389 136.908 179.701 134.712 175.15 134.712C170.6 134.712 166.912 136.908 166.912 139.617C166.912 142.326 170.6 144.523 175.15 144.523Z" fill="#18202B"/>
<path d="M132.699 127.228L156.472 126.096C156.472 126.096 154.648 133.643 148.548 135.718C142.447 137.793 133.391 132.511 132.699 127.228Z" fill="#32A76A"/>
<path d="M271.917 47.4577C271.769 47.4837 271.622 47.4963 271.476 47.4963C270.273 47.4963 269.208 46.6336 268.992 45.408L268.328 41.6329L255.737 57.8049C255.24 58.4425 254.496 58.7788 253.742 58.7788C253.235 58.7788 252.724 58.6264 252.28 58.3111L243.686 52.1976L236.56 62.6931C236.071 63.4125 235.277 63.8001 234.468 63.8001C233.98 63.8002 233.486 63.6589 233.052 63.3637C232.649 63.0903 232.35 62.721 232.165 62.307C231.82 61.5348 231.871 60.6072 232.381 59.856L240.958 47.2252C241.339 46.6632 241.931 46.2786 242.6 46.1584C243.268 46.0381 243.957 46.1923 244.511 46.5859L253.237 52.7938L264.196 38.7196C262.229 38.8566 260.679 38.9733 260.177 39.0277C259.628 39.153 259.033 39.0955 258.489 38.8237C257.469 38.3137 256.915 37.1775 257.141 36.0607C257.281 35.3703 257.707 34.7649 258.311 34.3996C258.462 34.3077 258.625 34.2313 258.794 34.1725C258.903 34.1344 259.014 34.104 259.132 34.0792C259.212 34.0626 259.296 34.0488 259.395 34.0353C259.501 34.021 259.632 34.0063 259.809 33.9894C260.09 33.9621 260.478 33.9291 260.995 33.8886C261.836 33.8229 263.005 33.7386 264.467 33.6384C266.951 33.468 269.464 33.3075 269.489 33.3057C270.48 33.2425 271.417 33.7668 271.882 34.6453C271.955 34.783 272.014 34.9254 272.059 35.0706C272.267 35.365 272.415 35.7087 272.481 36.0871L273.967 44.533C273.968 44.538 273.968 44.5431 273.969 44.5479C274.202 45.9163 273.286 47.217 271.917 47.4577Z" fill="#37B874"/>
<g opacity="0.11">
<path d="M271.917 47.4577C271.769 47.4837 271.622 47.4963 271.476 47.4963C270.273 47.4963 269.208 46.6336 268.992 45.408L268.328 41.6329L255.737 57.8049C255.24 58.4425 254.496 58.7788 253.742 58.7788C253.235 58.7788 252.724 58.6264 252.28 58.3111L243.686 52.1976L236.56 62.6931C236.071 63.4125 235.277 63.8001 234.468 63.8001C233.98 63.8002 233.486 63.6589 233.052 63.3637C232.649 63.0903 232.35 62.721 232.165 62.307L232.166 62.3068C232.166 62.3068 234.804 63.8526 236.031 61.2747C237.259 58.6968 242.432 49.5951 243.888 50.2791C245.343 50.9631 252.27 57.6796 254.077 56.5047C255.883 55.3297 268.089 39.4237 269.106 39.8622C270.121 40.2997 268.918 48.1615 273.969 44.5482C274.202 45.9163 273.286 47.217 271.917 47.4577Z" fill="white"/>
</g>
<g opacity="0.11">
<path d="M236.461 59.0826C236.408 59.0826 236.354 59.0681 236.306 59.0376C236.171 58.9521 236.131 58.7733 236.216 58.6383L239.794 52.9914C239.879 52.8564 240.058 52.8164 240.193 52.9019C240.328 52.9874 240.368 53.1662 240.283 53.3012L236.705 58.9481C236.65 59.0349 236.556 59.0826 236.461 59.0826Z" fill="white"/>
</g>
<g opacity="0.11">
<path d="M242.458 50.7531C242.405 50.7531 242.351 50.7385 242.303 50.7079C242.168 50.6224 242.128 50.4432 242.214 50.3082C242.233 50.2774 242.701 49.5528 243.523 49.447C244.084 49.3749 244.654 49.6042 245.216 50.1286C245.333 50.2377 245.34 50.4207 245.23 50.5375C245.121 50.6544 244.938 50.6608 244.822 50.5518C244.393 50.1519 243.982 49.9731 243.601 50.0205C243.05 50.0889 242.706 50.6136 242.702 50.6188C242.647 50.7058 242.554 50.7531 242.458 50.7531Z" fill="white"/>
</g>
<g opacity="0.11">
<path d="M248.701 53.2602C248.642 53.2602 248.582 53.2419 248.53 53.2041L245.689 51.1171C245.561 51.0225 245.533 50.8414 245.627 50.7126C245.722 50.5837 245.903 50.5561 246.032 50.6506L248.873 52.7376C249.002 52.8322 249.029 53.0133 248.935 53.1421C248.878 53.2194 248.79 53.2602 248.701 53.2602Z" fill="white"/>
</g>
<g opacity="0.11">
<path d="M253.517 56.2096C253.341 56.2096 253.162 56.176 252.99 56.1063L252.188 55.782C252.04 55.7221 251.969 55.5534 252.029 55.4052C252.088 55.257 252.257 55.1856 252.405 55.2454L253.207 55.5697C253.543 55.7053 253.921 55.608 254.15 55.3272L257.912 50.7013C258.013 50.5773 258.195 50.5585 258.319 50.6595C258.443 50.7603 258.462 50.9425 258.361 51.0666L254.599 55.6924C254.326 56.0275 253.928 56.2096 253.517 56.2096Z" fill="white"/>
</g>
<g opacity="0.11">
<path d="M258.803 50.3842C258.739 50.3842 258.674 50.3631 258.621 50.3197C258.497 50.2191 258.478 50.037 258.578 49.9128L259.7 48.5274C259.801 48.4032 259.983 48.3841 260.107 48.4846C260.231 48.5853 260.251 48.7674 260.15 48.8916L259.028 50.277C258.971 50.3475 258.887 50.3842 258.803 50.3842Z" fill="white"/>
</g>
<g opacity="0.11">
<path d="M262.608 46.1403C262.545 46.1403 262.481 46.1196 262.428 46.0772C262.303 45.9776 262.283 45.7955 262.382 45.6705L264.942 42.4613C265.042 42.3363 265.224 42.3158 265.349 42.4155C265.474 42.5151 265.494 42.6972 265.395 42.8222L262.835 46.0314C262.777 46.103 262.693 46.1403 262.608 46.1403Z" fill="white"/>
</g>
<g opacity="0.11">
<path d="M266.589 41.493C266.509 41.493 266.429 41.4597 266.372 41.3946C266.266 41.2746 266.278 41.0917 266.398 40.9863L268.813 38.8636C268.962 38.7331 269.164 38.6857 269.355 38.7366C269.546 38.7874 269.698 38.9295 269.762 39.1165L270.125 40.1808C270.177 40.332 270.096 40.4965 269.945 40.5481C269.793 40.5997 269.629 40.5189 269.577 40.3677L269.214 39.3034C269.213 39.3006 269.212 39.2974 269.206 39.2959C269.2 39.2943 269.197 39.2965 269.195 39.2985L266.78 41.4211C266.725 41.4693 266.657 41.493 266.589 41.493Z" fill="white"/>
</g>
<g opacity="0.11">
<path d="M272.166 45.3687C272.158 45.3687 272.149 45.3682 272.139 45.3675C271.47 45.3055 270.953 45.0462 270.603 44.5963C269.968 43.7814 270.136 42.645 270.144 42.597C270.169 42.439 270.317 42.3312 270.475 42.3558C270.632 42.3804 270.74 42.5281 270.716 42.6858C270.714 42.6996 270.581 43.6299 271.061 44.2432C271.309 44.5605 271.69 44.7448 272.193 44.7913C272.352 44.806 272.469 44.947 272.454 45.106C272.44 45.2559 272.314 45.3687 272.166 45.3687Z" fill="white"/>
</g>
<path d="M235.285 57.0297C235.206 57.0297 235.126 57.0056 235.058 56.9553C234.886 56.8296 234.848 56.5881 234.974 56.4162L236.395 54.4712C236.521 54.2991 236.763 54.2616 236.935 54.3873C237.107 54.513 237.144 54.7545 237.018 54.9264L235.597 56.8715C235.521 56.975 235.404 57.0297 235.285 57.0297Z" fill="white"/>
<path d="M255.707 51.2786C255.62 51.2786 255.532 51.249 255.46 51.1883C255.296 51.0513 255.275 50.808 255.412 50.6448L258.516 46.9445C258.653 46.7813 258.896 46.76 259.06 46.8968C259.223 47.0337 259.244 47.277 259.107 47.4404L256.003 51.1407C255.927 51.2316 255.818 51.2786 255.707 51.2786Z" fill="white"/>
<path d="M241.38 48.2455C241.309 48.2455 241.237 48.226 241.173 48.1849C240.993 48.0706 240.94 47.8314 241.054 47.6517C241.081 47.6107 241.706 46.6453 242.798 46.4953C243.525 46.3954 244.261 46.675 244.987 47.326C245.146 47.4684 245.159 47.7123 245.017 47.8708C244.875 48.0294 244.631 48.0427 244.472 47.9004C243.925 47.4096 243.399 47.1937 242.909 47.259C242.173 47.3569 241.709 48.06 241.705 48.0672C241.631 48.1827 241.507 48.2455 241.38 48.2455Z" fill="white"/>
<path d="M259.579 35.2379C259.385 35.2379 259.218 35.0915 259.196 34.8938C259.173 34.682 259.326 34.4915 259.538 34.4686L263.351 34.0538C263.562 34.0307 263.753 34.1839 263.776 34.3957C263.799 34.6075 263.646 34.798 263.434 34.8209L259.622 35.2357C259.607 35.2372 259.593 35.2379 259.579 35.2379Z" fill="white"/>
<path d="M237.737 61.1518C237.7 61.1518 237.663 61.1415 237.63 61.1196C237.542 61.0606 237.517 60.9409 237.576 60.8521L243.569 51.8205C243.598 51.7764 243.644 51.7462 243.697 51.7371C243.749 51.7279 243.802 51.7407 243.845 51.7723L252.419 58.1548C252.434 58.1655 252.881 58.4817 253.486 58.5783C254.284 58.7059 254.981 58.4043 255.557 57.6817C257.046 55.8106 267.966 41.6578 268.076 41.515C268.141 41.4307 268.262 41.415 268.347 41.4801C268.431 41.5452 268.447 41.6662 268.382 41.7507C268.272 41.8935 257.35 56.0485 255.858 57.922C255.021 58.9737 254.064 59.0652 253.409 58.9567C252.71 58.8409 252.212 58.4814 252.192 58.4661L243.778 52.2033L237.898 61.0653C237.861 61.1215 237.799 61.1518 237.737 61.1518Z" fill="black"/>
<path d="M259.364 39.1988C259.262 39.1988 259.177 39.1198 259.171 39.0172C259.165 38.9108 259.246 38.8195 259.353 38.8133L264.184 38.5297C264.29 38.5232 264.382 38.6045 264.388 38.7109C264.394 38.8172 264.313 38.9086 264.207 38.9147L259.375 39.1984C259.371 39.1987 259.368 39.1988 259.364 39.1988Z" fill="black"/>
</svg>
